<mxfile host="app.diagrams.net" modified="2022-11-13T12:32:42.780Z" agent="5.0 (Macintosh; Intel Mac OS X 10_15_7) AppleWebKit/537.36 (KHTML, like Gecko) Chrome/107.0.0.0 Safari/537.36" etag="PYkLiBnyVZcF6Q3g00ea" version="20.5.1" type="github">
  <diagram id="O0v5r-rNThvZfGkP9p5U" name="Page-1">
    <mxGraphModel dx="946" dy="511" grid="1" gridSize="10" guides="1" tooltips="1" connect="1" arrows="1" fold="1" page="1" pageScale="1" pageWidth="1169" pageHeight="1654" math="0" shadow="0">
      <root>
        <mxCell id="0" />
        <mxCell id="1" parent="0" />
        <mxCell id="b7xNxIlc9pk9lG7xaA1z-1" value="Product" style="swimlane;fontStyle=2;align=center;verticalAlign=top;childLayout=stackLayout;horizontal=1;startSize=26;horizontalStack=0;resizeParent=1;resizeLast=0;collapsible=1;marginBottom=0;rounded=0;shadow=0;strokeWidth=1;" parent="1" vertex="1">
          <mxGeometry x="130" y="40" width="160" height="90" as="geometry">
            <mxRectangle x="230" y="140" width="160" height="26" as="alternateBounds" />
          </mxGeometry>
        </mxCell>
        <mxCell id="b7xNxIlc9pk9lG7xaA1z-2" value="+name: str" style="text;align=left;verticalAlign=top;spacingLeft=4;spacingRight=4;overflow=hidden;rotatable=0;points=[[0,0.5],[1,0.5]];portConstraint=eastwest;" parent="b7xNxIlc9pk9lG7xaA1z-1" vertex="1">
          <mxGeometry y="26" width="160" height="26" as="geometry" />
        </mxCell>
        <mxCell id="b7xNxIlc9pk9lG7xaA1z-3" value="+price: decimal" style="text;align=left;verticalAlign=top;spacingLeft=4;spacingRight=4;overflow=hidden;rotatable=0;points=[[0,0.5],[1,0.5]];portConstraint=eastwest;rounded=0;shadow=0;html=0;" parent="b7xNxIlc9pk9lG7xaA1z-1" vertex="1">
          <mxGeometry y="52" width="160" height="26" as="geometry" />
        </mxCell>
        <mxCell id="b7xNxIlc9pk9lG7xaA1z-7" value="Food" style="swimlane;fontStyle=0;align=center;verticalAlign=top;childLayout=stackLayout;horizontal=1;startSize=26;horizontalStack=0;resizeParent=1;resizeLast=0;collapsible=1;marginBottom=0;rounded=0;shadow=0;strokeWidth=1;" parent="1" vertex="1">
          <mxGeometry x="30" y="260" width="160" height="70" as="geometry">
            <mxRectangle x="130" y="380" width="160" height="26" as="alternateBounds" />
          </mxGeometry>
        </mxCell>
        <mxCell id="b7xNxIlc9pk9lG7xaA1z-8" value="+shelfLife: int" style="text;align=left;verticalAlign=top;spacingLeft=4;spacingRight=4;overflow=hidden;rotatable=0;points=[[0,0.5],[1,0.5]];portConstraint=eastwest;" parent="b7xNxIlc9pk9lG7xaA1z-7" vertex="1">
          <mxGeometry y="26" width="160" height="26" as="geometry" />
        </mxCell>
        <mxCell id="b7xNxIlc9pk9lG7xaA1z-10" value="" style="line;html=1;strokeWidth=1;align=left;verticalAlign=middle;spacingTop=-1;spacingLeft=3;spacingRight=3;rotatable=0;labelPosition=right;points=[];portConstraint=eastwest;" parent="b7xNxIlc9pk9lG7xaA1z-7" vertex="1">
          <mxGeometry y="52" width="160" height="8" as="geometry" />
        </mxCell>
        <mxCell id="b7xNxIlc9pk9lG7xaA1z-13" value="" style="endArrow=block;endSize=10;endFill=0;shadow=0;strokeWidth=1;rounded=0;edgeStyle=elbowEdgeStyle;elbow=vertical;" parent="1" source="b7xNxIlc9pk9lG7xaA1z-7" target="b7xNxIlc9pk9lG7xaA1z-1" edge="1">
          <mxGeometry width="160" relative="1" as="geometry">
            <mxPoint x="100" y="103" as="sourcePoint" />
            <mxPoint x="100" y="103" as="targetPoint" />
            <Array as="points">
              <mxPoint x="210" y="190" />
            </Array>
          </mxGeometry>
        </mxCell>
        <mxCell id="b7xNxIlc9pk9lG7xaA1z-14" value="Toy" style="swimlane;fontStyle=0;align=center;verticalAlign=top;childLayout=stackLayout;horizontal=1;startSize=26;horizontalStack=0;resizeParent=1;resizeLast=0;collapsible=1;marginBottom=0;rounded=0;shadow=0;strokeWidth=1;" parent="1" vertex="1">
          <mxGeometry x="230" y="260" width="160" height="70" as="geometry">
            <mxRectangle x="340" y="380" width="170" height="26" as="alternateBounds" />
          </mxGeometry>
        </mxCell>
        <mxCell id="b7xNxIlc9pk9lG7xaA1z-15" value="+ageAppropriate: int" style="text;align=left;verticalAlign=top;spacingLeft=4;spacingRight=4;overflow=hidden;rotatable=0;points=[[0,0.5],[1,0.5]];portConstraint=eastwest;" parent="b7xNxIlc9pk9lG7xaA1z-14" vertex="1">
          <mxGeometry y="26" width="160" height="26" as="geometry" />
        </mxCell>
        <mxCell id="b7xNxIlc9pk9lG7xaA1z-16" value="" style="line;html=1;strokeWidth=1;align=left;verticalAlign=middle;spacingTop=-1;spacingLeft=3;spacingRight=3;rotatable=0;labelPosition=right;points=[];portConstraint=eastwest;" parent="b7xNxIlc9pk9lG7xaA1z-14" vertex="1">
          <mxGeometry y="52" width="160" height="8" as="geometry" />
        </mxCell>
        <mxCell id="b7xNxIlc9pk9lG7xaA1z-17" value="" style="endArrow=block;endSize=10;endFill=0;shadow=0;strokeWidth=1;rounded=0;edgeStyle=elbowEdgeStyle;elbow=vertical;" parent="1" source="b7xNxIlc9pk9lG7xaA1z-14" target="b7xNxIlc9pk9lG7xaA1z-1" edge="1">
          <mxGeometry width="160" relative="1" as="geometry">
            <mxPoint x="110" y="273" as="sourcePoint" />
            <mxPoint x="210" y="171" as="targetPoint" />
            <Array as="points">
              <mxPoint x="210" y="190" />
              <mxPoint x="200" y="190" />
            </Array>
          </mxGeometry>
        </mxCell>
        <mxCell id="XGct7RucdWY-_Vi-TAkt-1" value="Shop" style="swimlane;fontStyle=2;align=center;verticalAlign=top;childLayout=stackLayout;horizontal=1;startSize=26;horizontalStack=0;resizeParent=1;resizeLast=0;collapsible=1;marginBottom=0;rounded=0;shadow=0;strokeWidth=1;" parent="1" vertex="1">
          <mxGeometry x="630" y="20" width="160" height="90" as="geometry">
            <mxRectangle x="230" y="140" width="160" height="26" as="alternateBounds" />
          </mxGeometry>
        </mxCell>
        <mxCell id="XGct7RucdWY-_Vi-TAkt-2" value="+name: str" style="text;align=left;verticalAlign=top;spacingLeft=4;spacingRight=4;overflow=hidden;rotatable=0;points=[[0,0.5],[1,0.5]];portConstraint=eastwest;" parent="XGct7RucdWY-_Vi-TAkt-1" vertex="1">
          <mxGeometry y="26" width="160" height="26" as="geometry" />
        </mxCell>
        <mxCell id="XGct7RucdWY-_Vi-TAkt-4" value="+address: str" style="text;align=left;verticalAlign=top;spacingLeft=4;spacingRight=4;overflow=hidden;rotatable=0;points=[[0,0.5],[1,0.5]];portConstraint=eastwest;rounded=0;shadow=0;html=0;" parent="XGct7RucdWY-_Vi-TAkt-1" vertex="1">
          <mxGeometry y="52" width="160" height="26" as="geometry" />
        </mxCell>
        <mxCell id="XGct7RucdWY-_Vi-TAkt-5" value="" style="line;html=1;strokeWidth=1;align=left;verticalAlign=middle;spacingTop=-1;spacingLeft=3;spacingRight=3;rotatable=0;labelPosition=right;points=[];portConstraint=eastwest;" parent="XGct7RucdWY-_Vi-TAkt-1" vertex="1">
          <mxGeometry y="78" width="160" height="8" as="geometry" />
        </mxCell>
        <mxCell id="XGct7RucdWY-_Vi-TAkt-19" value="Customer" style="swimlane;fontStyle=2;align=center;verticalAlign=top;childLayout=stackLayout;horizontal=1;startSize=26;horizontalStack=0;resizeParent=1;resizeLast=0;collapsible=1;marginBottom=0;rounded=0;shadow=0;strokeWidth=1;" parent="1" vertex="1">
          <mxGeometry x="400" y="14" width="160" height="138" as="geometry">
            <mxRectangle x="230" y="140" width="160" height="26" as="alternateBounds" />
          </mxGeometry>
        </mxCell>
        <mxCell id="XGct7RucdWY-_Vi-TAkt-20" value="+name: str" style="text;align=left;verticalAlign=top;spacingLeft=4;spacingRight=4;overflow=hidden;rotatable=0;points=[[0,0.5],[1,0.5]];portConstraint=eastwest;" parent="XGct7RucdWY-_Vi-TAkt-19" vertex="1">
          <mxGeometry y="26" width="160" height="26" as="geometry" />
        </mxCell>
        <mxCell id="XGct7RucdWY-_Vi-TAkt-21" value="+phoneNumber: str" style="text;align=left;verticalAlign=top;spacingLeft=4;spacingRight=4;overflow=hidden;rotatable=0;points=[[0,0.5],[1,0.5]];portConstraint=eastwest;rounded=0;shadow=0;html=0;" parent="XGct7RucdWY-_Vi-TAkt-19" vertex="1">
          <mxGeometry y="52" width="160" height="26" as="geometry" />
        </mxCell>
        <mxCell id="XGct7RucdWY-_Vi-TAkt-22" value="+emailAddress: str" style="text;align=left;verticalAlign=top;spacingLeft=4;spacingRight=4;overflow=hidden;rotatable=0;points=[[0,0.5],[1,0.5]];portConstraint=eastwest;rounded=0;shadow=0;html=0;" parent="XGct7RucdWY-_Vi-TAkt-19" vertex="1">
          <mxGeometry y="78" width="160" height="26" as="geometry" />
        </mxCell>
        <mxCell id="XGct7RucdWY-_Vi-TAkt-23" value="" style="line;html=1;strokeWidth=1;align=left;verticalAlign=middle;spacingTop=-1;spacingLeft=3;spacingRight=3;rotatable=0;labelPosition=right;points=[];portConstraint=eastwest;" parent="XGct7RucdWY-_Vi-TAkt-19" vertex="1">
          <mxGeometry y="104" width="160" height="8" as="geometry" />
        </mxCell>
        <mxCell id="XGct7RucdWY-_Vi-TAkt-24" value="+shopping(str): bool" style="text;align=left;verticalAlign=top;spacingLeft=4;spacingRight=4;overflow=hidden;rotatable=0;points=[[0,0.5],[1,0.5]];portConstraint=eastwest;" parent="XGct7RucdWY-_Vi-TAkt-19" vertex="1">
          <mxGeometry y="112" width="160" height="26" as="geometry" />
        </mxCell>
        <mxCell id="4iwAJVX4r1V-sD9EC93W-45" style="edgeStyle=orthogonalEdgeStyle;rounded=0;orthogonalLoop=1;jettySize=auto;html=1;entryX=0.5;entryY=1;entryDx=0;entryDy=0;endArrow=block;endFill=0;" edge="1" parent="1" source="4iwAJVX4r1V-sD9EC93W-1" target="4iwAJVX4r1V-sD9EC93W-20">
          <mxGeometry relative="1" as="geometry">
            <Array as="points">
              <mxPoint x="610" y="290" />
              <mxPoint x="710" y="290" />
            </Array>
          </mxGeometry>
        </mxCell>
        <mxCell id="4iwAJVX4r1V-sD9EC93W-1" value="ToySalesDepartment" style="swimlane;fontStyle=0;align=center;verticalAlign=top;childLayout=stackLayout;horizontal=1;startSize=26;horizontalStack=0;resizeParent=1;resizeLast=0;collapsible=1;marginBottom=0;rounded=0;shadow=0;strokeWidth=1;" vertex="1" parent="1">
          <mxGeometry x="530" y="310" width="160" height="70" as="geometry">
            <mxRectangle x="408" y="20" width="160" height="26" as="alternateBounds" />
          </mxGeometry>
        </mxCell>
        <mxCell id="4iwAJVX4r1V-sD9EC93W-4" value="+toyType: int" style="text;align=left;verticalAlign=top;spacingLeft=4;spacingRight=4;overflow=hidden;rotatable=0;points=[[0,0.5],[1,0.5]];portConstraint=eastwest;rounded=0;shadow=0;html=0;" vertex="1" parent="4iwAJVX4r1V-sD9EC93W-1">
          <mxGeometry y="26" width="160" height="26" as="geometry" />
        </mxCell>
        <mxCell id="4iwAJVX4r1V-sD9EC93W-7" value="" style="line;html=1;strokeWidth=1;align=left;verticalAlign=middle;spacingTop=-1;spacingLeft=3;spacingRight=3;rotatable=0;labelPosition=right;points=[];portConstraint=eastwest;" vertex="1" parent="4iwAJVX4r1V-sD9EC93W-1">
          <mxGeometry y="52" width="160" height="8" as="geometry" />
        </mxCell>
        <mxCell id="4iwAJVX4r1V-sD9EC93W-44" style="edgeStyle=orthogonalEdgeStyle;rounded=0;orthogonalLoop=1;jettySize=auto;html=1;entryX=0.5;entryY=1;entryDx=0;entryDy=0;endArrow=open;endFill=0;" edge="1" parent="1" source="4iwAJVX4r1V-sD9EC93W-11" target="b7xNxIlc9pk9lG7xaA1z-7">
          <mxGeometry relative="1" as="geometry">
            <mxPoint x="95.03999999999996" y="376.99199999999996" as="targetPoint" />
            <Array as="points">
              <mxPoint x="880" y="400" />
              <mxPoint x="110" y="400" />
            </Array>
          </mxGeometry>
        </mxCell>
        <mxCell id="4iwAJVX4r1V-sD9EC93W-56" style="edgeStyle=orthogonalEdgeStyle;rounded=0;orthogonalLoop=1;jettySize=auto;html=1;entryX=0.5;entryY=1;entryDx=0;entryDy=0;endArrow=block;endFill=0;" edge="1" parent="1" source="4iwAJVX4r1V-sD9EC93W-11" target="4iwAJVX4r1V-sD9EC93W-20">
          <mxGeometry relative="1" as="geometry">
            <Array as="points">
              <mxPoint x="820" y="290" />
              <mxPoint x="710" y="290" />
            </Array>
          </mxGeometry>
        </mxCell>
        <mxCell id="4iwAJVX4r1V-sD9EC93W-11" value="FoodSalesDepartment" style="swimlane;fontStyle=0;align=center;verticalAlign=top;childLayout=stackLayout;horizontal=1;startSize=26;horizontalStack=0;resizeParent=1;resizeLast=0;collapsible=1;marginBottom=0;rounded=0;shadow=0;strokeWidth=1;" vertex="1" parent="1">
          <mxGeometry x="745" y="310" width="175" height="70" as="geometry">
            <mxRectangle x="408" y="20" width="160" height="26" as="alternateBounds" />
          </mxGeometry>
        </mxCell>
        <mxCell id="4iwAJVX4r1V-sD9EC93W-14" value="+storageCabinetsNumber: int" style="text;align=left;verticalAlign=top;spacingLeft=4;spacingRight=4;overflow=hidden;rotatable=0;points=[[0,0.5],[1,0.5]];portConstraint=eastwest;rounded=0;shadow=0;html=0;" vertex="1" parent="4iwAJVX4r1V-sD9EC93W-11">
          <mxGeometry y="26" width="175" height="26" as="geometry" />
        </mxCell>
        <mxCell id="4iwAJVX4r1V-sD9EC93W-17" value="" style="line;html=1;strokeWidth=1;align=left;verticalAlign=middle;spacingTop=-1;spacingLeft=3;spacingRight=3;rotatable=0;labelPosition=right;points=[];portConstraint=eastwest;" vertex="1" parent="4iwAJVX4r1V-sD9EC93W-11">
          <mxGeometry y="52" width="175" height="8" as="geometry" />
        </mxCell>
        <mxCell id="4iwAJVX4r1V-sD9EC93W-20" value="Department" style="swimlane;fontStyle=0;align=center;verticalAlign=top;childLayout=stackLayout;horizontal=1;startSize=26;horizontalStack=0;resizeParent=1;resizeLast=0;collapsible=1;marginBottom=0;rounded=0;shadow=0;strokeWidth=1;" vertex="1" parent="1">
          <mxGeometry x="630" y="152" width="160" height="118" as="geometry">
            <mxRectangle x="408" y="20" width="160" height="26" as="alternateBounds" />
          </mxGeometry>
        </mxCell>
        <mxCell id="4iwAJVX4r1V-sD9EC93W-22" value="+salesVolume: int" style="text;align=left;verticalAlign=top;spacingLeft=4;spacingRight=4;overflow=hidden;rotatable=0;points=[[0,0.5],[1,0.5]];portConstraint=eastwest;rounded=0;shadow=0;html=0;" vertex="1" parent="4iwAJVX4r1V-sD9EC93W-20">
          <mxGeometry y="26" width="160" height="26" as="geometry" />
        </mxCell>
        <mxCell id="4iwAJVX4r1V-sD9EC93W-23" value="+state: int" style="text;align=left;verticalAlign=top;spacingLeft=4;spacingRight=4;overflow=hidden;rotatable=0;points=[[0,0.5],[1,0.5]];portConstraint=eastwest;rounded=0;shadow=0;html=0;" vertex="1" parent="4iwAJVX4r1V-sD9EC93W-20">
          <mxGeometry y="52" width="160" height="26" as="geometry" />
        </mxCell>
        <mxCell id="4iwAJVX4r1V-sD9EC93W-26" value="" style="line;html=1;strokeWidth=1;align=left;verticalAlign=middle;spacingTop=-1;spacingLeft=3;spacingRight=3;rotatable=0;labelPosition=right;points=[];portConstraint=eastwest;" vertex="1" parent="4iwAJVX4r1V-sD9EC93W-20">
          <mxGeometry y="78" width="160" height="8" as="geometry" />
        </mxCell>
        <mxCell id="4iwAJVX4r1V-sD9EC93W-27" value="+selling(int): bool" style="text;align=left;verticalAlign=top;spacingLeft=4;spacingRight=4;overflow=hidden;rotatable=0;points=[[0,0.5],[1,0.5]];portConstraint=eastwest;" vertex="1" parent="4iwAJVX4r1V-sD9EC93W-20">
          <mxGeometry y="86" width="160" height="26" as="geometry" />
        </mxCell>
        <mxCell id="4iwAJVX4r1V-sD9EC93W-42" value="" style="endArrow=diamondThin;endFill=1;endSize=24;html=1;rounded=0;exitX=0.5;exitY=0;exitDx=0;exitDy=0;" edge="1" parent="1" source="4iwAJVX4r1V-sD9EC93W-20">
          <mxGeometry width="160" relative="1" as="geometry">
            <mxPoint x="260" y="332" as="sourcePoint" />
            <mxPoint x="710" y="110" as="targetPoint" />
          </mxGeometry>
        </mxCell>
        <mxCell id="4iwAJVX4r1V-sD9EC93W-43" style="edgeStyle=orthogonalEdgeStyle;rounded=0;orthogonalLoop=1;jettySize=auto;html=1;exitX=0;exitY=0.5;exitDx=0;exitDy=0;entryX=0.5;entryY=1;entryDx=0;entryDy=0;endArrow=open;endFill=0;" edge="1" parent="1" target="b7xNxIlc9pk9lG7xaA1z-14">
          <mxGeometry relative="1" as="geometry">
            <mxPoint x="530" y="375" as="sourcePoint" />
            <Array as="points">
              <mxPoint x="530" y="370" />
              <mxPoint x="310" y="370" />
            </Array>
          </mxGeometry>
        </mxCell>
        <mxCell id="4iwAJVX4r1V-sD9EC93W-58" value="&lt;span style=&quot;text-align: left;&quot;&gt;selling&lt;/span&gt;" style="text;html=1;align=center;verticalAlign=middle;resizable=0;points=[];autosize=1;strokeColor=none;fillColor=none;" vertex="1" parent="1">
          <mxGeometry x="280" y="380" width="60" height="30" as="geometry" />
        </mxCell>
        <mxCell id="4iwAJVX4r1V-sD9EC93W-59" value="&lt;span style=&quot;text-align: left;&quot;&gt;selling&lt;/span&gt;" style="text;html=1;align=center;verticalAlign=middle;resizable=0;points=[];autosize=1;strokeColor=none;fillColor=none;" vertex="1" parent="1">
          <mxGeometry x="415" y="350" width="60" height="30" as="geometry" />
        </mxCell>
        <mxCell id="4iwAJVX4r1V-sD9EC93W-86" value="" style="endArrow=open;endFill=1;endSize=12;html=1;rounded=0;strokeColor=#000000;exitX=0;exitY=0.5;exitDx=0;exitDy=0;entryX=1;entryY=0.5;entryDx=0;entryDy=0;" edge="1" parent="1" source="XGct7RucdWY-_Vi-TAkt-21" target="b7xNxIlc9pk9lG7xaA1z-2">
          <mxGeometry width="160" relative="1" as="geometry">
            <mxPoint x="370" y="210" as="sourcePoint" />
            <mxPoint x="530" y="210" as="targetPoint" />
          </mxGeometry>
        </mxCell>
        <mxCell id="4iwAJVX4r1V-sD9EC93W-87" value="1..n" style="text;html=1;align=center;verticalAlign=middle;resizable=0;points=[];autosize=1;strokeColor=none;fillColor=none;" vertex="1" parent="1">
          <mxGeometry x="290" y="55" width="40" height="30" as="geometry" />
        </mxCell>
        <mxCell id="4iwAJVX4r1V-sD9EC93W-88" value="buy" style="text;html=1;align=center;verticalAlign=middle;resizable=0;points=[];autosize=1;strokeColor=none;fillColor=none;" vertex="1" parent="1">
          <mxGeometry x="330" y="55" width="40" height="30" as="geometry" />
        </mxCell>
        <mxCell id="4iwAJVX4r1V-sD9EC93W-89" value="&lt;font style=&quot;font-size: 11px;&quot;&gt;1&lt;/font&gt;" style="text;html=1;align=center;verticalAlign=middle;resizable=0;points=[];autosize=1;strokeColor=none;fillColor=none;" vertex="1" parent="1">
          <mxGeometry x="375" y="55" width="30" height="30" as="geometry" />
        </mxCell>
      </root>
    </mxGraphModel>
  </diagram>
</mxfile>
